<mxfile host="app.diagrams.net" modified="2022-01-12T09:58:00.314Z" agent="5.0 (Windows NT 10.0; Win64; x64) AppleWebKit/537.36 (KHTML, like Gecko) Chrome/97.0.4692.71 Safari/537.36" etag="tFt4kbNrpUJs9czzgGHS" version="16.2.4" type="github">
  <diagram id="OM3lx3goNTmFPO1qKr1K" name="Page-1">
    <mxGraphModel dx="1157" dy="520" grid="1" gridSize="10" guides="1" tooltips="1" connect="1" arrows="1" fold="1" page="1" pageScale="1" pageWidth="827" pageHeight="1169" math="0" shadow="0">
      <root>
        <mxCell id="0" />
        <mxCell id="1" parent="0" />
        <mxCell id="ES-EeXoTM_ZExigbFJbH-48" style="edgeStyle=orthogonalEdgeStyle;rounded=0;orthogonalLoop=1;jettySize=auto;html=1;exitX=1;exitY=0.5;exitDx=0;exitDy=0;entryX=0;entryY=0.5;entryDx=0;entryDy=0;fontColor=#000000;" parent="1" source="ES-EeXoTM_ZExigbFJbH-50" target="ES-EeXoTM_ZExigbFJbH-103" edge="1">
          <mxGeometry relative="1" as="geometry" />
        </mxCell>
        <mxCell id="ES-EeXoTM_ZExigbFJbH-49" style="edgeStyle=orthogonalEdgeStyle;rounded=0;orthogonalLoop=1;jettySize=auto;html=1;exitX=1;exitY=0.5;exitDx=0;exitDy=0;entryX=0;entryY=0.5;entryDx=0;entryDy=0;fontColor=#000000;" parent="1" source="ES-EeXoTM_ZExigbFJbH-50" target="ES-EeXoTM_ZExigbFJbH-106" edge="1">
          <mxGeometry relative="1" as="geometry" />
        </mxCell>
        <mxCell id="ES-EeXoTM_ZExigbFJbH-50" value="F105:Désamorcer les pièges" style="rounded=0;whiteSpace=wrap;html=1;" parent="1" vertex="1">
          <mxGeometry x="90" y="1100" width="120" height="60" as="geometry" />
        </mxCell>
        <mxCell id="ES-EeXoTM_ZExigbFJbH-51" style="edgeStyle=orthogonalEdgeStyle;rounded=0;orthogonalLoop=1;jettySize=auto;html=1;exitX=1;exitY=0.5;exitDx=0;exitDy=0;entryX=0;entryY=0.5;entryDx=0;entryDy=0;fontColor=#000000;" parent="1" source="ES-EeXoTM_ZExigbFJbH-52" target="ES-EeXoTM_ZExigbFJbH-110" edge="1">
          <mxGeometry relative="1" as="geometry" />
        </mxCell>
        <mxCell id="ES-EeXoTM_ZExigbFJbH-52" value="F106 :aucun calcul ou traitement sur le drone" style="rounded=0;whiteSpace=wrap;html=1;" parent="1" vertex="1">
          <mxGeometry x="90" y="1300" width="120" height="60" as="geometry" />
        </mxCell>
        <mxCell id="ES-EeXoTM_ZExigbFJbH-95" style="edgeStyle=orthogonalEdgeStyle;rounded=0;orthogonalLoop=1;jettySize=auto;html=1;exitX=1;exitY=0.5;exitDx=0;exitDy=0;entryX=0;entryY=0.5;entryDx=0;entryDy=0;fontColor=#000000;" parent="1" source="ES-EeXoTM_ZExigbFJbH-98" target="ES-EeXoTM_ZExigbFJbH-99" edge="1">
          <mxGeometry relative="1" as="geometry" />
        </mxCell>
        <mxCell id="ES-EeXoTM_ZExigbFJbH-96" style="edgeStyle=orthogonalEdgeStyle;rounded=0;orthogonalLoop=1;jettySize=auto;html=1;exitX=1;exitY=0.5;exitDx=0;exitDy=0;entryX=0;entryY=0.5;entryDx=0;entryDy=0;fontColor=#000000;" parent="1" source="ES-EeXoTM_ZExigbFJbH-98" target="ES-EeXoTM_ZExigbFJbH-100" edge="1">
          <mxGeometry relative="1" as="geometry" />
        </mxCell>
        <mxCell id="ES-EeXoTM_ZExigbFJbH-97" style="edgeStyle=orthogonalEdgeStyle;rounded=0;orthogonalLoop=1;jettySize=auto;html=1;exitX=1;exitY=0.5;exitDx=0;exitDy=0;entryX=0;entryY=0.5;entryDx=0;entryDy=0;fontColor=#000000;" parent="1" source="ES-EeXoTM_ZExigbFJbH-98" target="ES-EeXoTM_ZExigbFJbH-108" edge="1">
          <mxGeometry relative="1" as="geometry" />
        </mxCell>
        <mxCell id="ES-EeXoTM_ZExigbFJbH-98" value="&lt;font color=&quot;#000000&quot;&gt;F104:lire les QR Code&lt;/font&gt;" style="rounded=0;whiteSpace=wrap;html=1;labelBackgroundColor=none;fontColor=#0000FF;strokeColor=#000000;fillColor=default;" parent="1" vertex="1">
          <mxGeometry x="90" y="850" width="120" height="60" as="geometry" />
        </mxCell>
        <mxCell id="ES-EeXoTM_ZExigbFJbH-99" value="&quot;fouiller le cube&quot; pour trouver le QRC" style="rounded=0;whiteSpace=wrap;html=1;labelBackgroundColor=none;fontColor=#000000;strokeColor=#000000;fillColor=default;" parent="1" vertex="1">
          <mxGeometry x="320" y="770" width="100" height="40" as="geometry" />
        </mxCell>
        <mxCell id="ES-EeXoTM_ZExigbFJbH-100" value="envoie du QRC au VAB (le drone ne peut lire le QCR)" style="rounded=0;whiteSpace=wrap;html=1;labelBackgroundColor=none;fontColor=#000000;strokeColor=#000000;fillColor=default;" parent="1" vertex="1">
          <mxGeometry x="320" y="950" width="120" height="40" as="geometry" />
        </mxCell>
        <mxCell id="ES-EeXoTM_ZExigbFJbH-101" style="edgeStyle=orthogonalEdgeStyle;rounded=0;orthogonalLoop=1;jettySize=auto;html=1;exitX=1;exitY=0.5;exitDx=0;exitDy=0;entryX=0;entryY=0.5;entryDx=0;entryDy=0;fontColor=#000000;" parent="1" source="ES-EeXoTM_ZExigbFJbH-103" target="ES-EeXoTM_ZExigbFJbH-104" edge="1">
          <mxGeometry relative="1" as="geometry" />
        </mxCell>
        <mxCell id="ES-EeXoTM_ZExigbFJbH-103" value="Se poser sur le cube (ou autre action demandée)" style="rounded=0;whiteSpace=wrap;html=1;labelBackgroundColor=none;fontColor=#000000;strokeColor=#000000;fillColor=default;" parent="1" vertex="1">
          <mxGeometry x="315" y="1050" width="120" height="40" as="geometry" />
        </mxCell>
        <mxCell id="ES-EeXoTM_ZExigbFJbH-104" value="vérifier que l&#39;atterrissage est possible, calcul de l&#39;emplacement précis, algorithme pour se poser à un endroit précis" style="rounded=0;whiteSpace=wrap;html=1;labelBackgroundColor=none;fontColor=#000000;strokeColor=#000000;fillColor=default;" parent="1" vertex="1">
          <mxGeometry x="530" y="1035" width="180" height="70" as="geometry" />
        </mxCell>
        <mxCell id="ES-EeXoTM_ZExigbFJbH-106" value="envoie de la position aux Husky pour qu&#39;ils le désactivent&amp;nbsp;" style="rounded=0;whiteSpace=wrap;html=1;labelBackgroundColor=none;fontColor=#000000;strokeColor=#000000;fillColor=default;" parent="1" vertex="1">
          <mxGeometry x="315" y="1169" width="120" height="60" as="geometry" />
        </mxCell>
        <mxCell id="ES-EeXoTM_ZExigbFJbH-108" value="prise en photo du QRC" style="rounded=0;whiteSpace=wrap;html=1;labelBackgroundColor=none;fontColor=#000000;strokeColor=#000000;fillColor=default;" parent="1" vertex="1">
          <mxGeometry x="305" y="865" width="140" height="30" as="geometry" />
        </mxCell>
        <mxCell id="ES-EeXoTM_ZExigbFJbH-110" value="&lt;font color=&quot;#0000ff&quot;&gt;La communication entre drone et VAB doit être parfaite&lt;/font&gt;" style="rounded=0;whiteSpace=wrap;html=1;labelBackgroundColor=none;fontColor=#000000;strokeColor=#000000;fillColor=default;" parent="1" vertex="1">
          <mxGeometry x="320" y="1300" width="110" height="60" as="geometry" />
        </mxCell>
      </root>
    </mxGraphModel>
  </diagram>
</mxfile>
